<svg viewBox="0 0 16 16" fill="none" xmlns="http://www.w3.org/2000/svg" id="Arrow--Streamline-Unicons" height="16" width="16">
  <desc>
    Arrow Streamline Icon: https://streamlinehq.com
  </desc>
  <path d="M6.006466666666666 3.0291333333333332c-0.08093333333333333 -0.08159999999999999 -0.17726666666666668 -0.14633333333333332 -0.2833333333333333 -0.19053333333333333 -0.10606666666666666 -0.044199999999999996 -0.21986666666666665 -0.06693333333333333 -0.3348 -0.06693333333333333s-0.22866666666666668 0.02273333333333333 -0.3348 0.06693333333333333c-0.10606666666666666 0.044199999999999996 -0.2023333333333333 0.10893333333333333 -0.28326666666666667 0.19053333333333333L0.4175333333333333 7.3819333333333335c-0.08159999999999999 0.08093333333333333 -0.14639999999999997 0.17719999999999997 -0.1906 0.28326666666666667C0.18273333333333333 7.771333333333333 0.15999999999999998 7.885066666666667 0.15999999999999998 8s0.02273333333333333 0.22866666666666668 0.06693333333333333 0.3348c0.044199999999999996 0.10606666666666666 0.109 0.2023333333333333 0.1906 0.28326666666666667l4.352733333333333 4.3528c0.08093333333333333 0.08153333333333333 0.17719999999999997 0.14633333333333332 0.28326666666666667 0.19053333333333333 0.10613333333333333 0.04426666666666666 0.21986666666666665 0.06693333333333333 0.3348 0.06693333333333333s0.22873333333333334 -0.02266666666666667 0.3348 -0.06693333333333333c0.10606666666666666 -0.044199999999999996 0.20239999999999997 -0.109 0.2833333333333333 -0.19053333333333333 0.08153333333333333 -0.08099999999999999 0.14633333333333332 -0.17726666666666668 0.19053333333333333 -0.28326666666666667 0.044199999999999996 -0.10613333333333333 0.06693333333333333 -0.21993333333333334 0.06693333333333333 -0.33486666666666665s-0.02273333333333333 -0.22866666666666668 -0.06693333333333333 -0.3348c-0.044199999999999996 -0.106 -0.109 -0.2023333333333333 -0.19053333333333333 -0.28326666666666667L2.2630666666666666 8l3.7434 -3.7346666666666666c0.08153333333333333 -0.08093333333333333 0.14633333333333332 -0.17719999999999997 0.19053333333333333 -0.28326666666666667 0.044199999999999996 -0.10613333333333333 0.06693333333333333 -0.21986666666666665 0.06693333333333333 -0.3348s-0.02273333333333333 -0.22873333333333334 -0.06693333333333333 -0.3348c-0.044199999999999996 -0.10606666666666666 -0.109 -0.20239999999999997 -0.19053333333333333 -0.2833333333333333Zm9.576 4.3528 -4.352733333333333 -4.3528c-0.08113333333333334 -0.08113333333333334 -0.17753333333333332 -0.14553333333333332 -0.28359999999999996 -0.18946666666666667 -0.10606666666666666 -0.04393333333333333 -0.21966666666666668 -0.06653333333333333 -0.3344666666666667 -0.06653333333333333 -0.23186666666666667 0 -0.4542 0.09206666666666666 -0.6181333333333333 0.256 -0.08113333333333334 0.0812 -0.14553333333333332 0.17753333333333332 -0.18953333333333333 0.28359999999999996 -0.043866666666666665 0.10606666666666666 -0.06646666666666666 0.21973333333333334 -0.06646666666666666 0.33453333333333335 0 0.2318 0.09206666666666666 0.45413333333333333 0.256 0.6180666666666667L13.736933333333333 8l-3.7434 3.7346666666666666c-0.08153333333333333 0.08093333333333333 -0.14633333333333332 0.17726666666666668 -0.19053333333333333 0.28326666666666667 -0.04426666666666666 0.10613333333333333 -0.067 0.21993333333333334 -0.067 0.3348s0.02273333333333333 0.22873333333333334 0.067 0.3348c0.044199999999999996 0.10606666666666666 0.109 0.2023333333333333 0.19053333333333333 0.2833333333333333 0.08099999999999999 0.08153333333333333 0.17726666666666668 0.14633333333333332 0.28326666666666667 0.19053333333333333 0.10613333333333333 0.04426666666666666 0.21993333333333334 0.06693333333333333 0.33486666666666665 0.06693333333333333s0.22866666666666668 -0.02266666666666667 0.3348 -0.06693333333333333c0.106 -0.044199999999999996 0.20226666666666665 -0.109 0.28326666666666667 -0.19053333333333333l4.352733333333333 -4.3528c0.08159999999999999 -0.08093333333333333 0.14633333333333332 -0.17719999999999997 0.1906 -0.28326666666666667 0.044199999999999996 -0.10613333333333333 0.06693333333333333 -0.21986666666666665 0.06693333333333333 -0.3348s-0.02273333333333333 -0.22866666666666668 -0.06693333333333333 -0.3348c-0.04426666666666666 -0.10606666666666666 -0.109 -0.2023333333333333 -0.1906 -0.28326666666666667Z" fill="#f1efec" stroke-width="0.6667"></path>
</svg>