<svg viewBox="0 0 16 16" fill="none" xmlns="http://www.w3.org/2000/svg" id="Import--Streamline-Unicons" height="16" width="16">
  <desc>
    Import Streamline Icon: https://streamlinehq.com
  </desc>
  <path d="M15.056 9.568c-0.20793333333333333 0 -0.4073333333333333 0.08266666666666667 -0.5543333333333333 0.22966666666666663s-0.22966666666666663 0.34639999999999993 -0.22966666666666663 0.5543333333333333v3.1359999999999997c0 0.20793333333333333 -0.08259999999999999 0.4074 -0.22959999999999997 0.5544s-0.3464666666666667 0.22959999999999997 -0.5544 0.22959999999999997H2.5119999999999996c-0.20793333333333333 0 -0.4073333333333333 -0.08259999999999999 -0.5544 -0.22959999999999997 -0.147 -0.147 -0.22959999999999997 -0.3464666666666667 -0.22959999999999997 -0.5544v-3.1359999999999997c0 -0.20793333333333333 -0.08259999999999999 -0.4073333333333333 -0.22959999999999997 -0.5543333333333333 -0.14706666666666665 -0.147 -0.3464666666666667 -0.22966666666666663 -0.5544 -0.22966666666666663s-0.4073333333333333 0.08266666666666667 -0.5544 0.22966666666666663c-0.147 0.147 -0.22959999999999997 0.34639999999999993 -0.22959999999999997 0.5543333333333333v3.1359999999999997c0 0.6237333333333333 0.24779999999999996 1.222 0.6888666666666667 1.6631333333333331 0.44113333333333327 0.4410666666666666 1.0393333333333332 0.6888666666666667 1.6631333333333331 0.6888666666666667h10.975999999999999c0.6237333333333333 0 1.222 -0.24779999999999996 1.6631333333333331 -0.6888666666666667 0.4410666666666666 -0.44113333333333327 0.6888666666666667 -1.0393999999999999 0.6888666666666667 -1.6631333333333331v-3.1359999999999997c0 -0.20793333333333333 -0.08259999999999999 -0.4073333333333333 -0.22959999999999997 -0.5543333333333333s-0.3464666666666667 -0.22966666666666663 -0.5544 -0.22966666666666663Zm-7.612666666666667 1.3406666666666667c0.0746 0.07133333333333333 0.16246666666666665 0.12726666666666664 0.2587333333333333 0.1646 0.09386666666666667 0.041466666666666666 0.1953333333333333 0.06286666666666665 0.29793333333333333 0.06286666666666665 0.1026 0 0.20406666666666665 -0.021399999999999995 0.29793333333333333 -0.06286666666666665 0.09626666666666667 -0.03733333333333333 0.18413333333333332 -0.09326666666666666 0.2587333333333333 -0.1646l3.1359999999999997 -3.1359999999999997c0.1476 -0.14766666666666667 0.2305333333333333 -0.34786666666666666 0.2305333333333333 -0.5566666666666666s-0.08293333333333333 -0.40900000000000003 -0.2305333333333333 -0.5566666666666666c-0.14766666666666667 -0.1476 -0.34786666666666666 -0.2305333333333333 -0.5566666666666666 -0.2305333333333333s-0.40900000000000003 0.08293333333333333 -0.5566666666666666 0.2305333333333333l-1.7953333333333332 1.8032V0.944c0 -0.20793333333333333 -0.08259999999999999 -0.4073333333333333 -0.22959999999999997 -0.5544C8.407399999999999 0.24259999999999998 8.207933333333333 0.15999999999999998 8 0.15999999999999998c-0.20793333333333333 0 -0.4073333333333333 0.08259999999999999 -0.5543333333333333 0.22959999999999997 -0.147 0.14706666666666665 -0.22966666666666663 0.3464666666666667 -0.22966666666666663 0.5544v7.518533333333332L5.4206666666666665 6.6593333333333335c-0.07313333333333333 -0.07306666666666667 -0.15993333333333332 -0.13106666666666666 -0.25539999999999996 -0.17066666666666666 -0.09553333333333333 -0.039466666666666664 -0.19786666666666666 -0.059866666666666665 -0.3012666666666667 -0.059866666666666665 -0.10339999999999999 0 -0.20573333333333332 0.020399999999999998 -0.3012666666666667 0.059866666666666665 -0.09546666666666666 0.039599999999999996 -0.18226666666666663 0.09759999999999999 -0.25539999999999996 0.17066666666666666 -0.07306666666666667 0.07306666666666667 -0.13106666666666666 0.15986666666666666 -0.1706 0.2554666666666666 -0.039599999999999996 0.09546666666666666 -0.059933333333333325 0.1978 -0.059933333333333325 0.30119999999999997 0 0.10339999999999999 0.02033333333333333 0.20573333333333332 0.059933333333333325 0.30119999999999997 0.03953333333333333 0.09559999999999999 0.09753333333333333 0.1824 0.1706 0.2554666666666666l3.1359999999999997 3.1359999999999997Z" fill="#f1efec" stroke-width="0.6667"></path>
</svg>