<svg xmlns="http://www.w3.org/2000/svg" fill="none" viewBox="0 0 24 24" id="Download--Streamline-Rounded-Material" height="24" width="24">
  <desc>
    Download Streamline Icon: https://streamlinehq.com
  </desc>
  <path fill="#000000" d="M11.99675 15.875c-0.09785 0 -0.1884 -0.01665 -0.27175 -0.05 -0.08335 -0.03335 -0.16665 -0.09165 -0.25 -0.175l-3.775 -3.775c-0.15 -0.1545 -0.22085 -0.33485 -0.2125 -0.541 0.00835 -0.206 0.08425 -0.384 0.22775 -0.534 0.1565 -0.15 0.3389 -0.225 0.54725 -0.225 0.20835 0 0.3875 0.075 0.5375 0.225l2.45 2.475V4.75c0 -0.2125 0.07235 -0.390665 0.217 -0.5345 0.1445 -0.143665 0.32365 -0.2155 0.5375 -0.2155 0.21365 0 0.39135 0.071835 0.533 0.2155 0.14165 0.143835 0.2125 0.322 0.2125 0.5345v8.525l2.475 -2.475c0.14665 -0.15 0.32085 -0.22085 0.5225 -0.2125 0.20165 0.00835 0.38075 0.0875 0.53725 0.2375 0.1435 0.15 0.21525 0.32915 0.21525 0.5375 0 0.20835 -0.075 0.3875 -0.225 0.5375l-3.75 3.75c-0.08335 0.08335 -0.16775 0.14165 -0.25325 0.175 -0.08565 0.03335 -0.17735 0.05 -0.275 0.05ZM5.5 20c-0.4 0 -0.75 -0.15 -1.05 -0.45 -0.3 -0.3 -0.45 -0.65 -0.45 -1.05v-2.825c0 -0.2125 0.072335 -0.39065 0.217 -0.5345 0.1445 -0.14365 0.323665 -0.2155 0.5375 -0.2155 0.213665 0 0.39135 0.07185 0.533 0.2155 0.14165 0.14385 0.2125 0.322 0.2125 0.5345V18.5h13v-2.825c0 -0.2125 0.07235 -0.39065 0.217 -0.5345 0.1445 -0.14365 0.32365 -0.2155 0.5375 -0.2155 0.21365 0 0.39135 0.07185 0.533 0.2155 0.14165 0.14385 0.2125 0.322 0.2125 0.5345V18.5c0 0.4 -0.15 0.75 -0.45 1.05 -0.3 0.3 -0.65 0.45 -1.05 0.45H5.5Z" stroke-width="0.5"></path>
</svg>