<svg xmlns="http://www.w3.org/2000/svg" viewBox="0 0 16 16" fill="#000000" id="Globe--Streamline-Phosphor" height="16" width="16">
  <desc>
    Globe Streamline Icon: https://streamlinehq.com
  </desc>
  <path d="M8 0.16c-6.0352375 0 -9.80725625 6.53333125 -6.7896375 11.76 3.0176125 5.22666875 10.56165625 5.22666875 13.579275 0C15.47774375 10.72816875 15.84 9.37620625 15.84 8 15.8350125 3.67215625 12.32784375 0.1649875 8 0.16ZM14.63384375 8c0.000525 0.61179375 -0.08395625 1.22069375 -0.25103125 1.80923125h-2.90305625c0.18494375 -1.1990625 0.18494375 -2.4194 0 -3.6184625h2.90305625c0.167075 0.5885375 0.25155625 1.1974375 0.25103125 1.80923125ZM6.04 11.01538125h3.92c-0.3861875 1.2654 -1.05660625 2.42574375 -1.96 3.3923125 -0.90305 -0.966825 -1.57341875 -2.12708125 -1.96 -3.3923125Zm-0.294 -1.20615c-0.20705 -1.19726875 -0.20705 -2.42119375 0 -3.6184625h4.51403125c0.20705 1.19726875 0.20705 2.42119375 0 3.6184625ZM1.36615625 8c-0.000525 -0.61179375 0.08395625 -1.22069375 0.251025 -1.80923125h2.9030625c-0.18494375 1.1990625 -0.18494375 2.4194 0 3.6184625H1.6171875c-0.167075 -0.5885375 -0.25155625 -1.1974375 -0.25103125 -1.80923125ZM9.96 4.9846125H6.04c0.3861875 -1.26539375 1.05660625 -2.4257375 1.96 -3.39230625 0.90305 0.966825 1.57341875 2.12708125 1.96 3.39230625Zm3.944875 0h-2.6852c-0.3384375 -1.24165 -0.90883125 -2.408025 -1.681075 -3.4375375 1.8881625 0.4535875 3.48406875 1.7091625 4.36929375 3.4375375ZM6.4614 1.547075C5.68915625 2.5765875 5.1187625 3.7429625 4.780325 4.9846125H2.09210625c0.885225 -1.728375 2.48113125 -2.98395 4.36929375 -3.4375375Zm-4.36929375 9.4683125h2.68821875c0.3384375 1.24165 0.90883125 2.408025 1.681075 3.4375375 -1.8881625 -0.4535875 -3.48406875 -1.7091625 -4.36929375 -3.4375375Zm7.44649375 3.4375375c0.77224375 -1.0295125 1.3426375 -2.1958875 1.681075 -3.4375375h2.68821875c-0.885225 1.728375 -2.48113125 2.98395 -4.36929375 3.4375375Z" stroke-width="0.0625"></path>
</svg>